<?xml version="1.0" standalone="no"?>
<!DOCTYPE svg PUBLIC "-//W3C//DTD SVG 20010904//EN"
 "http://www.w3.org/TR/2001/REC-SVG-20010904/DTD/svg10.dtd">
<svg version="1.0" xmlns="http://www.w3.org/2000/svg"
 width="225.000000pt" height="225.000000pt" viewBox="0 0 225.000000 225.000000"
 preserveAspectRatio="xMidYMid meet">

<g transform="translate(0.000000,225.000000) scale(0.100000,-0.100000)"
fill="#000000" stroke="none">
<path d="M0 1125 l0 -1125 1125 0 1125 0 0 1125 0 1125 -1125 0 -1125 0 0
-1125z m842 353 c75 -35 147 -104 189 -181 33 -60 34 -66 34 -172 0 -106 -1
-112 -34 -172 -40 -74 -107 -140 -182 -179 -49 -26 -64 -28 -159 -29 -93 0
-111 3 -162 27 -80 37 -152 107 -191 187 -30 61 -32 73 -32 166 0 87 3 107 27
157 47 100 137 180 241 214 68 22 200 13 269 -18z m885 -3 c291 -143 290 -557
-2 -701 -55 -26 -69 -29 -165 -29 -94 0 -111 3 -161 28 -88 43 -143 98 -186
184 -35 71 -38 82 -37 167 0 81 3 98 30 156 38 80 78 128 144 170 76 49 122
60 227 56 76 -3 102 -8 150 -31z"/>
<path d="M630 1348 c-135 -81 -150 -268 -29 -371 191 -164 463 58 348 284 -38
75 -114 119 -207 119 -48 0 -67 -6 -112 -32z m254 -33 c7 -20 -18 -49 -38 -42
-25 10 -32 38 -12 53 20 14 42 9 50 -11z"/>
<path d="M1522 1359 c-123 -61 -167 -211 -95 -327 78 -127 246 -147 354 -43
122 119 78 320 -84 380 -47 18 -128 13 -175 -10z m233 -39 c11 -18 -6 -50 -26
-50 -22 0 -34 22 -25 45 6 17 42 20 51 5z"/>
</g>
</svg>
